# xmcd
#
# Track frame offsets:
#	150
#	15612
#	31486
#	45993
#	61301
#	81908
#	99725
#	121332
#	144740
#	208775
#	217167
#	230863
#	240418
#	265167
#
# Disc length: 3681 seconds
#
# Revision: 1
# Processed by: cddbd v1.5.2PL0 Copyright (c) Steve Scherf et al.
# Submitted via: audiograbber 1.83.01
#
DISCID=cb0e5f0e
DTITLE=Medicine Head - Live at the Marquee 1975
DYEAR=1975
DGENRE=Blues
TTITLE0=How does it feel
TTITLE1=Pictures in the sky
TTITLE2=Two men now
TTITLE3=Home's odyssey
TTITLE4=Mornin' light
TTITLE5=Oh my heart to peace
TTITLE6=His guiding hand
TTITLE7=Walking blues
TTITLE8=To train time/Rave on
TTITLE9=Blue suede shoes
TTITLE10=Five long years
TTITLE11=You got me rockin' and rollin'/Jenny, Jenny
TTITLE12=One and one is one
TTITLE13=Pictures in the sky(demo)
EXTD=
EXTT0=
EXTT1=
EXTT2=
EXTT3=
EXTT4=
EXTT5=
EXTT6=
EXTT7=
EXTT8=
EXTT9=
EXTT10=
EXTT11=
EXTT12=
EXTT13=
PLAYORDER=
